<svg xmlns="http://www.w3.org/2000/svg" width="181" height="209" viewBox="0 0 680 785" role="img">
  <title>tallieR hex sticker</title>
  <desc>Hex sticker for the tallieR R package, showing an abacus on a light blue background with navy border</desc>

  <defs>
    <clipPath id="hc">
      <polygon points="340,0 680,196 680,589 340,785 0,589 0,196"/>
    </clipPath>
    <clipPath id="inner">
      <polygon points="340,40 644,214 644,571 340,745 36,571 36,214"/>
    </clipPath>
  </defs>

  <polygon points="340,0 680,196 680,589 340,785 0,589 0,196" fill="#1E3A5F"/>
  <polygon points="340,40 644,214 644,571 340,745 36,571 36,214" fill="#4A7BB5"/>
  <polygon points="340,60 624,226 624,559 340,725 56,559 56,226" fill="none" stroke="#EEF5FF" stroke-width="1.5" opacity="0.4"/>

  <g clip-path="url(#inner)">
    <g transform="translate(340,320) scale(9) translate(-14.95,-16.7)" fill="#EEF5FF" stroke="none">

      <path d="M1,32.852a1,1,0,0,1-1-1V1a1,1,0,0,1,2,0V31.852A1,1,0,0,1,1,32.852Z"/>
      <path d="M29.905,32.852a1,1,0,0,1-1-1V1a1,1,0,0,1,2,0V31.852A1,1,0,0,1,29.905,32.852Z"/>

      <path d="M29.905,9.862H1.001a1,1,0,0,1,0-2h28.9a1,1,0,1,1,0,2Z"/>
      <path d="M29.905,17.426H1.001a1,1,0,0,1,0-2h28.9a1,1,0,0,1,0,2Z"/>
      <path d="M29.905,25.583H1.001a1,1,0,0,1,0-2h28.9a1,1,0,0,1,0,2Z"/>

      <rect height="5.684" rx="1.754" x="3.298"  y="6.019" width="3.507" fill="#6B3FA0"/>
      <rect height="5.684" rx="1.754" x="7.813"  y="6.019" width="3.507" fill="#6B3FA0"/>
      <rect height="5.684" rx="1.754" x="12.328" y="6.019" width="3.507" fill="#6B3FA0"/>
      <rect height="5.684" rx="1.754" x="23.213" y="6.019" width="3.507" fill="#1E3A5F"/>

      <rect height="5.684" rx="1.754" x="3.298"  y="13.584" width="3.507" fill="#6B3FA0"/>
      <rect height="5.684" rx="1.754" x="7.813"  y="13.584" width="3.507" fill="#6B3FA0"/>
      <rect height="5.684" rx="1.754" x="18.134" y="13.584" width="3.507" fill="#1E3A5F"/>
      <rect height="5.684" rx="1.754" x="22.649" y="13.584" width="3.507" fill="#1E3A5F"/>

      <rect height="5.684" rx="1.754" x="3.298"  y="21.742" width="3.507" fill="#6B3FA0"/>
      <rect height="5.684" rx="1.754" x="14.183" y="21.742" width="3.507" fill="#1E3A5F"/>
      <rect height="5.684" rx="1.754" x="18.698" y="21.742" width="3.507" fill="#1E3A5F"/>
      <rect height="5.684" rx="1.754" x="23.213" y="21.742" width="3.507" fill="#1E3A5F"/>

    </g>
  </g>

  <text x="340" y="575" text-anchor="middle" font-family="'Livvic', Georgia, sans-serif" font-size="80" font-weight="700" fill="#EEF5FF" letter-spacing="1">tallie<tspan fill="#6B3FA0">R</tspan></text>

</svg>
