<svg xmlns="http://www.w3.org/2000/svg" viewBox="0 0 1200 630" role="img">
  <title>circadiaBase Docker tutorial cover</title>
  <rect width="1200" height="630" fill="#1E3A5F"/>

  <!-- Background grid -->
  <g stroke="#2D5A8E" stroke-width="1" opacity="0.3">
    <line x1="0" y1="105" x2="1200" y2="105"/>
    <line x1="0" y1="210" x2="1200" y2="210"/>
    <line x1="0" y1="315" x2="1200" y2="315"/>
    <line x1="0" y1="420" x2="1200" y2="420"/>
    <line x1="0" y1="525" x2="1200" y2="525"/>
    <line x1="200" y1="0" x2="200" y2="630"/>
    <line x1="400" y1="0" x2="400" y2="630"/>
    <line x1="600" y1="0" x2="600" y2="630"/>
    <line x1="800" y1="0" x2="800" y2="630"/>
    <line x1="1000" y1="0" x2="1000" y2="630"/>
  </g>

  <!-- Container stack — centred in left zone (0–552), centre=276
       Stack width=290, offset=(276-145)=131 -->
  <g transform="translate(131, 115)">
    <!-- Row 3 (bottom) -->
    <rect x="0"   y="170" width="90" height="70" rx="8" fill="#4A7BB5" opacity="0.9"/>
    <rect x="100" y="170" width="90" height="70" rx="8" fill="#4A7BB5" opacity="0.9"/>
    <rect x="200" y="170" width="90" height="70" rx="8" fill="#4A7BB5" opacity="0.9"/>
    <text x="45"  y="201" text-anchor="middle" font-family="monospace" font-size="12" fill="#EEF5FF">Python</text>
    <text x="45"  y="217" text-anchor="middle" font-family="monospace" font-size="11" fill="#C8DFF5">3.11</text>
    <text x="145" y="208" text-anchor="middle" font-family="monospace" font-size="11" fill="#EEF5FF">pyActigraphy</text>
    <text x="245" y="201" text-anchor="middle" font-family="monospace" font-size="12" fill="#EEF5FF">MNE</text>
    <text x="245" y="217" text-anchor="middle" font-family="monospace" font-size="11" fill="#C8DFF5">YASA</text>
    <!-- Row 2 (middle) -->
    <rect x="50"  y="85" width="90" height="70" rx="8" fill="#6A9BD4" opacity="0.9"/>
    <rect x="150" y="85" width="90" height="70" rx="8" fill="#6A9BD4" opacity="0.9"/>
    <text x="95"  y="122" text-anchor="middle" font-family="monospace" font-size="13" fill="#1E3A5F">R 4.4</text>
    <text x="195" y="122" text-anchor="middle" font-family="monospace" font-size="13" fill="#1E3A5F">GGIR</text>
    <!-- Row 1 (top) -->
    <rect x="100" y="0" width="90" height="70" rx="8" fill="#8AB8E8" opacity="0.9"/>
    <text x="145" y="40" text-anchor="middle" font-family="monospace" font-size="13" fill="#1E3A5F">brms</text>
    <!-- Wave -->
    <path d="M-60,252 Q75,238 145,252 Q215,266 290,252 Q345,242 400,252 L400,285 L-60,285 Z" fill="#2D5A8E" opacity="0.7"/>
  </g>

  <!-- Arrow — horizontally centred (x=552), vertically centred (y=230) -->
  <g transform="translate(552, 230)">
    <line x1="0" y1="0" x2="80" y2="0" stroke="#E07A20" stroke-width="3"/>
    <polygon points="80,-8 96,0 80,8" fill="#E07A20"/>
    <text x="48" y="-14" text-anchor="middle" font-family="monospace" font-size="11" fill="#E07A20">docker-compose</text>
    <text x="48" y="18"  text-anchor="middle" font-family="monospace" font-size="11" fill="#E07A20">up --build</text>
  </g>

  <!-- Browser windows — centred in right zone (648–1200), centre=924
       Each 260px wide, offset=924-130=794 -->
  <!-- JupyterLab -->
  <g transform="translate(794, 110)">
    <rect width="260" height="160" rx="10" fill="#0D1117"/>
    <rect width="260" height="28" rx="10" fill="#161B22"/>
    <rect x="0" y="18" width="260" height="10" fill="#161B22"/>
    <circle cx="16" cy="14" r="5" fill="#FF5F57"/>
    <circle cx="32" cy="14" r="5" fill="#FEBC2E"/>
    <circle cx="48" cy="14" r="5" fill="#28C840"/>
    <text x="130" y="17" text-anchor="middle" font-family="monospace" font-size="9" fill="#8B949E">localhost:8889/lab</text>
    <text x="12" y="50"  font-family="monospace" font-size="10" fill="#79C0FF">import</text>
    <text x="65" y="50"  font-family="monospace" font-size="10" fill="#E6EDF3"> pyActigraphy</text>
    <text x="12" y="66"  font-family="monospace" font-size="10" fill="#79C0FF">import</text>
    <text x="65" y="66"  font-family="monospace" font-size="10" fill="#E6EDF3"> pandas as pd</text>
    <text x="12" y="82"  font-family="monospace" font-size="10" fill="#3FB950">pipe </text>
    <text x="46" y="82"  font-family="monospace" font-size="10" fill="#E6EDF3">= SleepPipeline(</text>
    <text x="12" y="98"  font-family="monospace" font-size="10" fill="#A5D6FF">  "subject_01.txt"</text>
    <text x="12" y="114" font-family="monospace" font-size="10" fill="#E6EDF3">result = pipe.run()</text>
    <text x="12" y="130" font-family="monospace" font-size="10" fill="#E6EDF3">result.plot()</text>
    <text x="12" y="150" font-family="monospace" font-size="9"  fill="#8B949E">🪐 JupyterLab</text>
  </g>
  <!-- RStudio -->
  <g transform="translate(794, 290)">
    <rect width="260" height="160" rx="10" fill="#1A1A2E"/>
    <rect width="260" height="28" rx="10" fill="#16213E"/>
    <rect x="0" y="18" width="260" height="10" fill="#16213E"/>
    <circle cx="16" cy="14" r="5" fill="#FF5F57"/>
    <circle cx="32" cy="14" r="5" fill="#FEBC2E"/>
    <circle cx="48" cy="14" r="5" fill="#28C840"/>
    <text x="130" y="17" text-anchor="middle" font-family="monospace" font-size="9" fill="#8B949E">localhost:8787</text>
    <text x="12" y="50"  font-family="monospace" font-size="10" fill="#79C0FF">library</text>
    <text x="60" y="50"  font-family="monospace" font-size="10" fill="#E6EDF3">(GGIR)</text>
    <text x="12" y="66"  font-family="monospace" font-size="10" fill="#79C0FF">library</text>
    <text x="60" y="66"  font-family="monospace" font-size="10" fill="#E6EDF3">(circacompare)</text>
    <text x="12" y="82"  font-family="monospace" font-size="10" fill="#79C0FF">library</text>
    <text x="60" y="82"  font-family="monospace" font-size="10" fill="#E6EDF3">(lme4)</text>
    <text x="12" y="98"  font-family="monospace" font-size="10" fill="#3FB950">fit </text>
    <text x="34" y="98"  font-family="monospace" font-size="10" fill="#E6EDF3">&lt;- lmer(se_pct ~</text>
    <text x="12" y="114" font-family="monospace" font-size="10" fill="#E6EDF3">  condition + (1|id))</text>
    <text x="12" y="150" font-family="monospace" font-size="9"  fill="#8B949E">🔵 RStudio Server</text>
  </g>

  <!-- Title -->
  <text x="600" y="530" text-anchor="middle" font-family="'Georgia', serif" font-size="42" font-weight="700" fill="#EEF5FF" letter-spacing="1">circadiaBase Docker</text>
  <text x="600" y="578" text-anchor="middle" font-family="'Georgia', serif" font-size="22" fill="#8AB8E8" letter-spacing="2">Setup &amp; Tutorial</text>
</svg>
